# xmcd
#
# Track frame offsets: 
#        150
#        21121
#        39654
#        58521
#        80030
#        100394
#        126259
#        147016
#        170237
#        193450
#        218701
#        241336
#        260883
#        285002
#
# Disc length: 4008 seconds
#
# Revision: 3
# Processed by: cddbd v1.5.2PL0 Copyright (c) Steve Scherf et al.
# Submitted via: ExactAudioCopy v1.0b3
#
DISCID=d40fa60e
DTITLE=刘若英 - LOVE情歌精选
DYEAR=2000
DGENRE=Pop
TTITLE0=成全
TTITLE1=收获
TTITLE2=对面男生的房间
TTITLE3=很爱很爱你
TTITLE4=我等你
TTITLE5=后来
TTITLE6=花季未了
TTITLE7=为爱痴狂
TTITLE8=打了一把钥匙给你
TTITLE9=游子
TTITLE10=好久好久
TTITLE11=坦白
TTITLE12=到处乱走
TTITLE13=Love
EXTD=
EXTT0=
EXTT1=
EXTT2=
EXTT3=
EXTT4=
EXTT5=
EXTT6=
EXTT7=
EXTT8=
EXTT9=
EXTT10=
EXTT11=
EXTT12=
EXTT13=
PLAYORDER=
